<svg id="Capa_1" enable-background="new 0 0 512 512" height="512" viewBox="0 0 512 512" width="512" xmlns="http://www.w3.org/2000/svg"><g><g><g><circle cx="249.204" cy="261.312" fill="#01c0fa" r="231.08"/></g><g><ellipse cx="249.204" cy="261.312" fill="#80d261" rx="150.202" ry="231.08"/></g><g fill="#01c0fa"><path d="m222.694 163.764.503.68v39.946c0 1.031.839 1.871 1.871 1.871h48.269c1.031 0 1.871-.84 1.871-1.871v-40.04l.476-.586h25.9c-9.195-78.866-29.19-133.531-52.381-133.531s-43.185 54.666-52.381 133.531z"/><path d="m196.823 358.86c9.195 78.866 29.19 133.531 52.381 133.531s43.185-54.665 52.381-133.531z"/></g><path d="m417.904 92.61c-45.062-45.062-104.974-69.878-168.701-69.878s-123.639 24.817-168.701 69.878c-45.062 45.063-69.878 104.975-69.878 168.702 0 63.728 24.816 123.64 69.878 168.701 45.062 45.063 104.974 69.879 168.701 69.879s123.639-24.816 168.702-69.879c45.062-45.062 69.878-104.974 69.878-168.701s-24.816-123.639-69.879-168.702zm48.716 116.27h-63.499c-3.905-26.593-10.783-51.859-20.372-74.864h50.314c15.808 22.728 27.142 48.048 33.557 74.864zm-78.686 104.864c-4.192 27.224-11.569 52.522-21.483 74.864h-61.418c1.557-9.53 2.92-19.483 4.104-29.748h-15.084c-1.213 10.297-2.619 20.241-4.217 29.748h-81.265c-1.598-9.507-3.004-19.451-4.217-29.748h-15.084c1.184 10.265 2.547 20.218 4.104 29.748h-61.418c-9.914-22.342-17.291-47.64-21.483-74.864h41.182v-15h-43.144c-1.316-12.176-2.009-24.679-2.009-37.433 0-12.753.693-25.256 2.009-37.432h43.144v-15h-41.182c4.192-27.224 11.569-52.522 21.483-74.864h61.419c-1.557 9.53-2.92 19.483-4.104 29.748h15.084c1.213-10.297 2.619-20.241 4.217-29.748h81.265c1.598 9.507 3.004 19.451 4.217 29.748h15.084c-1.184-10.265-2.547-20.218-4.104-29.748h61.419c9.914 22.342 17.291 47.64 21.483 74.864h-41.182v15h43.144c1.316 12.175 2.009 24.678 2.009 37.432s-.694 25.257-2.009 37.433h-43.144v15zm19.364-210.526c5.07 5.07 9.858 10.345 14.374 15.798h-45.722c-4.33-8.813-9.079-17.236-14.249-25.189-11.535-17.745-24.596-32.388-38.747-43.688 31.384 10.933 60.15 28.885 84.344 53.079zm-48.116 15.798h-56.815c-1.543-7.996-3.222-15.657-5.038-22.921-5.97-23.881-12.911-41.972-20.764-54.222 32.998 10.081 61.965 38.037 82.617 77.143zm-109.978-81.284c4.82 0 10.513 5.141 16.031 14.476 6.419 10.86 12.485 27.294 17.543 47.525 1.536 6.143 2.97 12.587 4.305 19.282h-75.758c1.336-6.695 2.77-13.139 4.306-19.282 11.44-45.763 25.235-62.001 33.573-62.001zm-48.126 58.363c-1.816 7.264-3.495 14.925-5.038 22.921h-56.815c20.652-39.106 49.619-67.061 82.617-77.143-7.853 12.25-14.794 30.341-20.764 54.222zm-109.969 7.123c24.193-24.194 52.959-42.146 84.344-53.079-14.151 11.3-27.212 25.942-38.746 43.687-5.17 7.954-9.919 16.376-14.249 25.189h-45.723c4.516-5.452 9.304-10.728 14.374-15.797zm-25.766 30.798h50.314c-9.588 23.005-16.467 48.272-20.371 74.864h-63.499c6.415-26.816 17.749-52.136 33.556-74.864zm-39.719 127.296c0-12.672 1.058-25.18 3.111-37.432h64.688c-1.265 12.272-1.921 24.776-1.921 37.432s.656 25.16 1.921 37.433h-64.688c-2.053-12.252-3.111-24.761-3.111-37.433zm6.163 52.432h63.499c3.905 26.593 10.783 51.859 20.372 74.864h-50.315c-15.807-22.728-27.141-48.047-33.556-74.864zm59.322 105.662c-5.07-5.07-9.858-10.345-14.374-15.798h45.723c4.329 8.813 9.079 17.235 14.248 25.188 11.534 17.746 24.595 32.388 38.746 43.688-31.384-10.932-60.15-28.885-84.343-53.078zm48.117-15.798h56.814c1.543 7.996 3.222 15.657 5.038 22.921 5.97 23.881 12.911 41.972 20.764 54.222-32.998-10.081-61.964-38.037-82.616-77.143zm109.978 81.284c-4.82 0-10.513-5.141-16.03-14.476-6.419-10.86-12.485-27.295-17.543-47.525-1.536-6.143-2.97-12.587-4.305-19.282h75.758c-1.336 6.695-2.77 13.139-4.305 19.282-11.442 45.762-25.238 62.001-33.575 62.001zm48.125-58.363c1.816-7.264 3.495-14.925 5.038-22.921h56.815c-20.652 39.106-49.618 67.061-82.616 77.143 7.852-12.25 14.793-30.341 20.763-54.222zm109.969-7.123c-24.193 24.193-52.96 42.146-84.344 53.079 14.151-11.3 27.212-25.942 38.746-43.688 5.17-7.953 9.919-16.375 14.249-25.188h45.723c-4.516 5.452-9.304 10.728-14.374 15.797zm25.765-30.798h-50.313c9.589-23.005 16.467-48.272 20.372-74.864h63.499c-6.416 26.817-17.75 52.136-33.558 74.864zm-28.079-89.864c1.266-12.273 1.921-24.777 1.921-37.433s-.656-25.159-1.921-37.432h64.688c2.053 12.251 3.111 24.76 3.111 37.432s-1.058 25.181-3.111 37.433z" fill="#0290cf"/></g><g><g><path d="m344.633 162.763h-69.424l-1 1.231v40.395c0 .48-.391.871-.871.871h-48.269c-.48 0-.871-.391-.871-.871v-40.276l-1-1.35h-69.424c-1.723 0-3.119 1.396-3.119 3.119v190.859c0 1.723 1.396 3.119 3.119 3.119h190.859c1.723 0 3.119-1.396 3.119-3.119v-190.859c0-1.722-1.396-3.119-3.119-3.119z" fill="#faea5e"/><g><path d="m182.857 356.742v-190.86c0-1.723 1.396-3.119 3.119-3.119h-32.202c-1.723 0-3.119 1.396-3.119 3.119v190.859c0 1.723 1.396 3.119 3.119 3.119h32.202c-1.722.001-3.119-1.396-3.119-3.118z" fill="#ffd600"/></g><g><path d="m223.198 162.763v41.627c0 1.034.838 1.871 1.871 1.871h48.269c1.034 0 1.871-.838 1.871-1.871v-41.627z" fill="#fd4755"/></g><g><path d="m244.668 204.39v-41.627h-21.47v41.627c0 1.034.838 1.871 1.871 1.871h21.47c-1.033 0-1.871-.838-1.871-1.871z" fill="#fb2b3a"/></g></g><path d="m276.853 255.979-21.97-25.467c-1.425-1.651-3.498-2.601-5.679-2.601s-4.254.949-5.679 2.601l-21.97 25.467c-2.706 3.137-2.357 7.872.78 10.578 3.135 2.706 7.872 2.355 10.578-.779l8.792-10.191v35.656c0 4.143 3.358 7.5 7.5 7.5s7.5-3.357 7.5-7.5v-35.656l8.792 10.191c1.483 1.719 3.576 2.601 5.682 2.601 1.735 0 3.479-.599 4.896-1.821 3.134-2.707 3.484-7.443.778-10.579z" fill="#d88a55"/><g><path d="m273.028 326.999h-47.649c-4.142 0-7.5-3.357-7.5-7.5s3.358-7.5 7.5-7.5h47.649c4.143 0 7.5 3.357 7.5 7.5s-3.357 7.5-7.5 7.5z" fill="#d88a55"/></g></g><g><g><path d="m439.415 172.612 42.854-74.226c20.104-34.821-5.026-78.348-45.234-78.348-40.208 0-65.339 43.527-45.234 78.348l42.854 74.226c1.058 1.832 3.702 1.832 4.76 0z" fill="#fd4755"/></g><g><path d="m433.056 98.386c-16.374-28.361-2.74-62.495 24.607-74.185-6.229-2.663-13.168-4.164-20.628-4.164-40.208 0-65.339 43.527-45.234 78.348l42.855 74.226c1.058 1.832 3.702 1.832 4.76 0l18.247-31.606z" fill="#fb2b3a"/></g><g><circle cx="437.035" cy="74.349" fill="#fff" r="20.975"/></g><path d="m437.05 74.349c0-7.756 4.221-14.512 10.48-18.141-3.089-1.791-6.667-2.834-10.495-2.834-11.584 0-20.975 9.391-20.975 20.975s9.391 20.975 20.975 20.975c3.828 0 7.406-1.042 10.495-2.834-6.259-3.629-10.48-10.385-10.48-18.141z" fill="#f2fbff"/></g><g><g><path d="m47.963 280.496 37.584-65.096c17.631-30.538-4.408-68.712-39.671-68.712-35.263 0-57.302 38.173-39.671 68.712l37.583 65.096c.929 1.607 3.248 1.607 4.175 0z" fill="#fd4755"/></g><g><path d="m38.59 215.4c-14.733-25.518-1.757-56.349 23.478-65.803-4.965-1.86-10.395-2.909-16.192-2.909-35.263 0-57.302 38.173-39.671 68.712l37.583 65.096c.928 1.607 3.247 1.607 4.174 0l14.105-24.431z" fill="#fb2b3a"/></g><g><circle cx="45.876" cy="194.319" fill="#fff" r="18.395"/></g><path d="m41 194.319c0-7.77 4.825-14.4 11.636-17.096-2.094-.829-4.37-1.299-6.759-1.299-10.159 0-18.395 8.236-18.395 18.395s8.236 18.395 18.395 18.395c2.389 0 4.665-.47 6.759-1.299-6.811-2.695-11.636-9.326-11.636-17.096z" fill="#f2fbff"/></g><g><g><path d="m468.211 398.518 37.583-65.096c17.631-30.538-4.408-68.712-39.671-68.712-35.263 0-57.302 38.173-39.671 68.712l37.583 65.096c.929 1.607 3.248 1.607 4.176 0z" fill="#fd4755"/></g><g><path d="m458.904 333.422c-14.726-25.507-1.768-56.322 23.445-65.79-4.974-1.868-10.415-2.922-16.225-2.922-35.263 0-57.302 38.173-39.671 68.712l37.583 65.096c.928 1.607 3.247 1.607 4.174 0l14.138-24.488z" fill="#fb2b3a"/></g><g><circle cx="466.124" cy="312.341" fill="#fff" r="18.395"/></g><path d="m462 312.341c0-7.629 4.644-14.172 11.26-16.958-2.194-.924-4.605-1.437-7.136-1.437-10.159 0-18.395 8.236-18.395 18.395s8.236 18.395 18.395 18.395c2.531 0 4.941-.512 7.136-1.437-6.616-2.786-11.26-9.329-11.26-16.958z" fill="#f2fbff"/></g><g><circle cx="61.168" cy="396.108" fill="#fd4755" r="22.655"/></g><path d="m59 396.108c0-8.824 5.048-16.464 12.411-20.205-3.077-1.563-6.556-2.45-10.243-2.45-12.512 0-22.655 10.143-22.655 22.655s10.143 22.655 22.655 22.655c3.688 0 7.166-.887 10.243-2.45-7.363-3.74-12.411-11.38-12.411-20.205z" fill="#fb2b3a"/><g><circle cx="395.327" cy="217.135" fill="#fd4755" r="22.655"/></g><path d="m393 217.135c0-8.856 5.085-16.52 12.491-20.246-3.057-1.538-6.508-2.409-10.164-2.409-12.512 0-22.655 10.143-22.655 22.655s10.143 22.655 22.655 22.655c3.656 0 7.106-.871 10.164-2.409-7.406-3.726-12.491-11.39-12.491-20.246z" fill="#fb2b3a"/><g><circle cx="370.407" cy="397.241" fill="#fd4755" r="22.655"/></g><path d="m368.69 397.241c0-8.734 4.946-16.308 12.186-20.089-3.132-1.636-6.691-2.565-10.469-2.565-12.512 0-22.655 10.143-22.655 22.655s10.143 22.655 22.655 22.655c3.778 0 7.337-.93 10.469-2.565-7.24-3.783-12.186-11.357-12.186-20.091z" fill="#fb2b3a"/><g><circle cx="249.204" cy="34.763" fill="#fd4755" r="22.655"/></g><path d="m247 34.763c0-8.831 5.057-16.477 12.429-20.214-3.073-1.558-6.545-2.441-10.226-2.441-12.512 0-22.655 10.143-22.655 22.655s10.143 22.655 22.655 22.655c3.681 0 7.153-.883 10.226-2.441-7.372-3.737-12.429-11.382-12.429-20.214z" fill="#fb2b3a"/><g><circle cx="124.602" cy="125.383" fill="#fd4755" r="22.655"/></g><path d="m122.69 125.383c0-8.773 4.99-16.375 12.283-20.139-3.108-1.604-6.633-2.516-10.372-2.516-12.512 0-22.655 10.143-22.655 22.655s10.143 22.655 22.655 22.655c3.739 0 7.263-.911 10.372-2.516-7.293-3.764-12.283-11.366-12.283-20.139z" fill="#fb2b3a"/></g></svg>