<svg id="Capa_1" enable-background="new 0 0 512 512" height="512" viewBox="0 0 512 512" width="512" xmlns="http://www.w3.org/2000/svg"><g><path d="m511 255v122c0 74.44-60.56 135-135 135h-240c-74.44 0-135-60.56-135-135v-122c0-46.58 23.71-87.72 59.69-112h390.62c35.98 24.28 59.69 65.42 59.69 112z" fill="#e0f4fe"/><path d="m511 255v122c0 74.44-60.56 135-135 135h-120v-369h195.31c35.98 24.28 59.69 65.42 59.69 112z" fill="#a6dafa"/><path d="m136 482c-57.897 0-105-47.103-105-105v-122c0-57.897 47.103-105 105-105h240c57.897 0 105 47.103 105 105v122c0 57.897-47.103 105-105 105z" fill="#6ee213"/><path d="m481 255v122c0 57.9-47.1 105-105 105h-120v-332h120c57.9 0 105 47.1 105 105z" fill="#41c52b"/><path d="m165.27 348.607-25.652-128.26c-1.622-8.115-9.528-13.393-17.65-11.768-43.471 8.695-71.765 51.136-63.07 94.606 8.79 43.952 51.43 71.706 94.606 63.071 8.122-1.623 13.391-9.526 11.766-17.649z" fill="#b5ff47"/><path d="m260.267 267.955c-7.751-2.906-16.403 1.021-19.312 8.778l-45 120c-2.909 7.757 1.021 16.402 8.778 19.312 40.922 15.347 86.465-5.35 101.812-46.278 15.31-40.829-5.45-86.501-46.278-101.812z" fill="#b5ff47"/><g fill="#6ee213"><path d="m306.54 369.77c-8.91 23.79-28.04 40.75-50.54 47.75v-150.48c1.43.09 2.86.39 4.27.92 40.82 15.31 61.58 60.98 46.27 101.81z"/><path d="m449.917 304.292-60.1-120.2c-3.701-7.403-12.717-10.415-20.125-6.708-40.537 20.269-57.026 69.738-36.758 110.274 20.273 40.546 69.747 57.023 110.274 36.758 7.404-3.701 10.413-12.715 6.709-20.124z"/><path d="m377 361c-24.813 0-45 20.187-45 45s20.187 45 45 45 45-20.187 45-45-20.187-45-45-45zm0 60c-8.271 0-15-6.729-15-15s6.729-15 15-15 15 6.729 15 15-6.729 15-15 15z"/></g><circle cx="136" cy="435.5" fill="#b5ff47" r="15"/><circle cx="196" cy="256" fill="#b5ff47" r="15"/><circle cx="281" cy="206" fill="#6ee213" r="15"/><path d="m466 35v80c0 19.3-15.7 35-35 35h-350c-19.3 0-35-15.7-35-35v-80c0-19.3 15.7-35 35-35h350c19.3 0 35 15.7 35 35z" fill="#f94862"/><path d="m466 35v80c0 19.3-15.7 35-35 35h-175v-150h175c19.3 0 35 15.7 35 35z" fill="#db2640"/><circle cx="136" cy="76" fill="#ff6683" r="15"/><circle cx="76" cy="76" fill="#ff6683" r="15"/><circle cx="256" cy="76" fill="#ff6683" r="15"/><path d="m271 76c0 8.28-6.72 15-15 15v-30c8.28 0 15 6.72 15 15z" fill="#f94862"/><circle cx="196" cy="76" fill="#ff6683" r="15"/><circle cx="376" cy="76" fill="#f94862" r="15"/><circle cx="316" cy="76" fill="#f94862" r="15"/><circle cx="436" cy="76" fill="#f94862" r="15"/></g></svg>