<svg id="Layer_1" enable-background="new 0 0 509.972 509.972" height="512" viewBox="0 0 509.972 509.972" width="512" xmlns="http://www.w3.org/2000/svg"><g id="XMLID_312_"><path id="XMLID_317_" d="m309.978 143.409 41.01-49.212 41.01-49.211h-76.013-76.012c-47.014-.024-86.12 36.385-89.733 83.03z" fill="#fc8b26"/><path id="XMLID_302_" d="m150.24 381.956c3.613 46.645 42.717 83.054 89.733 83.03h76.012 76.013l-41.01-49.211-41.01-49.212z" fill="#fc5b26"/><path id="XMLID_300_" d="m419.914 254.986h30.058l60-14.999v-40.823-55.823l-66.592 24.972-66.592 24.972 15.684 35.368z" fill="#fc8b26"/><path id="XMLID_334_" d="m376.788 316.686 66.592 24.972 66.592 24.973v-55.823-40.822l-60-15h-30.058l-27.442 27.5z" fill="#fc5b26"/><path id="XMLID_311_" d="m509.972 254.986-30 10-30-10v-7.5-7.5h30 30v7.5z" fill="#ffb726"/><path id="XMLID_313_" d="m509.972 269.986h-30-30v-7.5-7.5h30 30v7.5z" fill="#fc8b26"/><path id="XMLID_299_" d="m149.748 254.986-74.874 10-74.874-10 1.941-3.577 1.941-3.577c21.319-39.306 51.617-72.308 89.084-95.069l57.274 27.057z" fill="#ffdd54"/><path id="XMLID_306_" d="m160.639 325.319-10.891-70.333h-74.874-74.874l1.941 3.577 1.941 3.577c23.365 43.085 57.493 78.524 99.84 101.214z" fill="#ffb726"/><path id="XMLID_318_" d="m104.972 254.986-15 10-15-10v-7.5-7.5h15 15v7.5z" fill="#ad6643"/><path id="XMLID_413_" d="m104.972 269.986h-15-15v-7.5-7.5h15 15v7.5z" fill="#95573a"/><path id="XMLID_404_" d="m209.972 119.986c-20.887 0-41.263 2.847-60.765 8.312-19.771 5.542-38.644 13.775-56.242 24.464 16.39 12.302 29.978 27.552 39.77 44.852 9.828 17.362 15.833 36.789 17.013 57.371l135.083 10 135.083-10-1.941-3.577-1.941-3.577c-42.154-77.814-118.036-127.76-206.06-127.845z" fill="#ffb726"/><path id="XMLID_343_" d="m149.972 262.486c.007 39.175-17.509 74.92-46.25 100.868 113.957 61.36 252.577 12.698 312.309-101.214l1.941-3.577 1.941-3.577h-135.082-135.083c.072 1.246.128 2.495.166 3.749.038 1.246.058 2.496.058 3.751z" fill="#fc8b26"/><path id="XMLID_408_" d="m239.972 194.986v15 15c8.271 0 15.771 3.364 21.203 8.797 5.432 5.432 8.797 12.932 8.797 21.203l15 10 15-10c0-16.542-6.729-31.542-17.594-42.406-10.864-10.865-25.864-17.594-42.406-17.594z" fill="#fc8b26"/><path id="XMLID_405_" d="m239.972 284.986v15 15c16.542 0 31.542-6.729 42.406-17.594 10.865-10.864 17.594-25.864 17.594-42.406h-15-15c0 8.271-3.365 15.771-8.797 21.203-5.432 5.433-12.932 8.797-21.203 8.797z" fill="#fc5b26"/></g></svg>