<svg height="512" viewBox="0 0 512 512" width="512" xmlns="http://www.w3.org/2000/svg"><g id="flat"><path d="m56 96h256v256h-256z" fill="#ea9d2d"/><path d="m432 112h-32v-16h-8a8 8 0 0 1 -8-8v-32h48z" fill="#e6a98d"/><path d="m432 56h-48l-16-16 16-16h48l8 16z" fill="#ea9d2d"/><path d="m376 128-40 24h-24v40h26.223a29.985 29.985 0 0 0 11.141-2.146l34.636-13.854z" fill="#e6a98d"/><path d="m472 144-7.133-19.022a20 20 0 0 0 -18.727-12.978h-46.14l-24 16 8 72 8 48v16h88l-8-40z" fill="#62ae88"/><path d="m392 264-32 88 24 104h24l-8-104 24-32v32l32 104h24l-16-112 16-80z" fill="#533222"/><path d="m384 456-24 16v16h48v-32z" fill="#cbcbcb"/><path d="m456 456-24 16v16h48v-32z" fill="#cbcbcb"/><path d="m328 464h-288l8-48h272z" fill="#009cf7"/><path d="m96 96v-8a16 16 0 0 0 -32 0v88a8 8 0 0 1 -16 0v-88a32 32 0 0 1 64 0v8z" fill="#c38325"/><path d="m64 464h40v24h-40z" fill="#007af6"/><path d="m264 464h40v24h-40z" fill="#007af6"/><path d="m312 384h-256a16 16 0 0 1 -16-16v-16h288v16a16 16 0 0 1 -16 16z" fill="#009cf7"/><path d="m88 384h192v32h-192z" fill="#007af6"/><path d="m224 216-40-32-40 32v-120h80z" fill="#ff3444"/><path d="m200 272h80v48h-80z" fill="#fbb540"/><path d="m424 152 8 40-120 32v16l-16 8 16 24 143.848-41.1a38 38 0 0 0 27.268-31.824v-.025a38.05 38.05 0 0 0 -.842-13.944l-10.274-41.107z" fill="#e6a98d"/><path d="m88 280h-64v-80l32-32 32 32z" fill="#cbcbcb"/><path d="m88 384h192v16h-192z" fill="#005dbb"/></g></svg>