<svg id="Layer_1" enable-background="new 0 0 510 510" height="512" viewBox="0 0 510 510" width="512" xmlns="http://www.w3.org/2000/svg"><g id="XMLID_3798_"><path id="XMLID_3936_" d="m7.5 145v275h195l8.357-127.5-8.357-147.5-97.5-12z" fill="#f2f4f9"/><path id="XMLID_3933_" d="m202.5 420h84.568l110.432-118.924v-156.076l-97.5-12-97.5 12z" fill="#dbf0f9"/><path id="XMLID_3935_" d="m7.5 145h195l11.143-40-11.143-60c-10.831 0-184.169 0-195 0z" fill="#ff641a"/><path id="XMLID_3932_" d="m202.5 45v100h195c0-14.518 0-85.387 0-100-10.831 0-184.169 0-195 0z" fill="#f03800"/><g id="XMLID_3824_"><path id="XMLID_3884_" d="m112.5 240h-45s0-19.508 0-30h45z" fill="#2ee66b"/></g><g id="XMLID_3823_"><path id="XMLID_3883_" d="m187.5 240h-45s0-19.508 0-30h45z" fill="#2ee66b"/></g><g id="XMLID_3821_"><path id="XMLID_3882_" d="m262.5 240h-45s0-19.508 0-30h45z" fill="#24b383"/></g><g id="XMLID_3817_"><path id="XMLID_3881_" d="m337.5 240h-45s0-19.508 0-30h45z" fill="#1f9970"/></g><g id="XMLID_3816_"><path id="XMLID_3880_" d="m112.5 300c-14.981 0-30.019 0-45 0 0-10.492 0-30 0-30h45z" fill="#2ee66b"/></g><g id="XMLID_3814_"><path id="XMLID_3879_" d="m187.5 300c-14.981 0-30.019 0-45 0 0-10.492 0-30 0-30h45z" fill="#2ee66b"/></g><g id="XMLID_3812_"><path id="XMLID_3835_" d="m262.5 300c-14.981 0-30.019 0-45 0 0-10.492 0-30 0-30h45z" fill="#1f9970"/></g><g id="XMLID_3811_"><path id="XMLID_3834_" d="m112.5 360h-45s0-19.508 0-30h45z" fill="#2ee66b"/></g><g id="XMLID_3810_"><path id="XMLID_3804_" d="m187.5 360h-45s0-19.508 0-30h45z" fill="#2ee66b"/></g><path id="XMLID_3885_" d="m292.5 405c0 57.896 47.101 105 105 105l10-105-10-105c-57.896 0-105 47.101-105 105z" fill="#5a5a5a"/><path id="XMLID_3878_" d="m397.5 300v210c57.896 0 105-47.102 105-105 0-57.896-47.101-105-105-105z" fill="#444"/><path id="XMLID_3887_" d="m322.5 405c0 41.354 33.644 75 75 75l10-75-10-75c-41.354 0-75 33.644-75 75z" fill="#f2f4f9"/><path id="XMLID_3886_" d="m397.5 330v150c41.354 0 75-33.644 75-75 0-41.354-33.644-75-75-75z" fill="#dbf0f9"/><path id="XMLID_3828_" d="m127.5 85c-15.896 0-44.081 0-60 0 0-2.553 0-57.428 0-55 0-16.568 13.431-30 30-30 16.568 0 30 13.432 30 30z" fill="#5a5a5a"/><path id="XMLID_3826_" d="m337.5 85c-15.896 0-44.082 0-60 0 0-2.553 0-57.428 0-55 0-16.568 13.431-30 30-30 16.568 0 30 13.432 30 30z" fill="#444"/><path id="XMLID_3891_" d="m382.5 360v60h15l8-30-8-30c-5.246 0-9.754 0-15 0z" fill="#ff641a"/><path id="XMLID_3832_" d="m442.5 390c-10.492 0-19.508 0-30 0 0-10.492 0-19.508 0-30-5.246 0-9.754 0-15 0v60h45c0-10.492 0-19.508 0-30z" fill="#f03800"/></g></svg>